<?xml version="1.0" encoding="utf-8"?>
<svg version="1.1" xmlns:xlink="http://www.w3.org/1999/xlink" width="19px" height="18px" xmlns="http://www.w3.org/2000/svg">
  <g transform="matrix(1 0 0 1 -176 -9 )">
    <path d="M 12.2142857142857 14.09765625  C 12.3061755952381 14.09765625  12.387462797619 14.05859375  12.4581473214286 13.98046875  L 14.0061383928571 12.26953125  C 14.0768229166667 12.19140625  14.1121651785714 12.1015625  14.1121651785714 12  C 14.1121651785714 11.8984375  14.0768229166667 11.80859375  14.0061383928571 11.73046875  L 11.5357142857143 9  L 14.0061383928571 6.26953125  C 14.0768229166667 6.19140625  14.1121651785714 6.1015625  14.1121651785714 6  C 14.1121651785714 5.8984375  14.0768229166667 5.80859375  14.0061383928571 5.73046875  L 12.4581473214286 4.01953125  C 12.387462797619 3.94140625  12.3061755952381 3.90234375  12.2142857142857 3.90234375  C 12.1223958333333 3.90234375  12.0411086309524 3.94140625  11.9704241071429 4.01953125  L 9.5 6.75  L 7.02957589285714 4.01953125  C 6.95889136904762 3.94140625  6.87760416666667 3.90234375  6.78571428571429 3.90234375  C 6.69382440476191 3.90234375  6.61253720238095 3.94140625  6.54185267857143 4.01953125  L 4.99386160714286 5.73046875  C 4.92317708333333 5.80859375  4.88783482142857 5.8984375  4.88783482142857 6  C 4.88783482142857 6.1015625  4.92317708333333 6.19140625  4.99386160714286 6.26953125  L 7.46428571428571 9  L 4.99386160714286 11.73046875  C 4.92317708333333 11.80859375  4.88783482142857 11.8984375  4.88783482142857 12  C 4.88783482142857 12.1015625  4.92317708333333 12.19140625  4.99386160714286 12.26953125  L 6.54185267857143 13.98046875  C 6.61253720238095 14.05859375  6.69382440476191 14.09765625  6.78571428571429 14.09765625  C 6.87760416666667 14.09765625  6.95889136904762 14.05859375  7.02957589285714 13.98046875  L 9.5 11.25  L 11.9704241071429 13.98046875  C 12.0411086309524 14.05859375  12.1223958333333 14.09765625  12.2142857142857 14.09765625  Z M 18.5016741071429 0.550781250000001  C 18.8338913690476 0.917968749999999  19 1.359375  19 1.875  L 19 16.125  C 19 16.640625  18.8338913690476 17.08203125  18.5016741071429 17.44921875  C 18.1694568452381 17.81640625  17.7700892857143 18  17.3035714285714 18  L 1.69642857142857 18  C 1.22991071428571 18  0.830543154761905 17.81640625  0.498325892857143 17.44921875  C 0.166108630952381 17.08203125  0 16.640625  0 16.125  L 0 1.875  C 0 1.359375  0.166108630952381 0.917968749999999  0.498325892857143 0.550781250000001  C 0.830543154761905 0.183593749999998  1.22991071428571 0  1.69642857142857 0  L 17.3035714285714 0  C 17.7700892857143 0  18.1694568452381 0.183593749999998  18.5016741071429 0.550781250000001  Z " fill-rule="nonzero" fill="#000000" stroke="none" transform="matrix(1 0 0 1 176 9 )" />
  </g>
</svg>