<?xml version="1.0" encoding="utf-8"?>
<svg version="1.1" xmlns:xlink="http://www.w3.org/1999/xlink" width="19px" height="16px" xmlns="http://www.w3.org/2000/svg">
  <g transform="matrix(1 0 0 1 -528 -653 )">
    <path d="M 12.2142857142857 12.53125  C 12.3061755952381 12.53125  12.387462797619 12.4965277777778  12.4581473214286 12.4270833333333  L 14.0061383928571 10.90625  C 14.0768229166667 10.8368055555556  14.1121651785714 10.7569444444444  14.1121651785714 10.6666666666667  C 14.1121651785714 10.5763888888889  14.0768229166667 10.4965277777778  14.0061383928571 10.4270833333333  L 11.5357142857143 8  L 14.0061383928571 5.57291666666667  C 14.0768229166667 5.50347222222222  14.1121651785714 5.42361111111111  14.1121651785714 5.33333333333333  C 14.1121651785714 5.24305555555556  14.0768229166667 5.16319444444444  14.0061383928571 5.09375  L 12.4581473214286 3.57291666666667  C 12.387462797619 3.50347222222222  12.3061755952381 3.46875  12.2142857142857 3.46875  C 12.1223958333333 3.46875  12.0411086309524 3.50347222222222  11.9704241071429 3.57291666666667  L 9.5 6  L 7.02957589285714 3.57291666666667  C 6.95889136904762 3.50347222222222  6.87760416666667 3.46875  6.78571428571429 3.46875  C 6.69382440476191 3.46875  6.61253720238095 3.50347222222222  6.54185267857143 3.57291666666667  L 4.99386160714286 5.09375  C 4.92317708333333 5.16319444444444  4.88783482142857 5.24305555555556  4.88783482142857 5.33333333333333  C 4.88783482142857 5.42361111111111  4.92317708333333 5.50347222222222  4.99386160714286 5.57291666666667  L 7.46428571428571 8  L 4.99386160714286 10.4270833333333  C 4.92317708333333 10.4965277777778  4.88783482142857 10.5763888888889  4.88783482142857 10.6666666666667  C 4.88783482142857 10.7569444444444  4.92317708333333 10.8368055555556  4.99386160714286 10.90625  L 6.54185267857143 12.4270833333333  C 6.61253720238095 12.4965277777778  6.69382440476191 12.53125  6.78571428571429 12.53125  C 6.87760416666667 12.53125  6.95889136904762 12.4965277777778  7.02957589285714 12.4270833333333  L 9.5 10  L 11.9704241071429 12.4270833333333  C 12.0411086309524 12.4965277777778  12.1223958333333 12.53125  12.2142857142857 12.53125  Z M 18.5016741071429 0.489583333333334  C 18.8338913690476 0.815972222222221  19 1.20833333333333  19 1.66666666666667  L 19 14.3333333333333  C 19 14.7916666666667  18.8338913690476 15.1840277777778  18.5016741071429 15.5104166666667  C 18.1694568452381 15.8368055555556  17.7700892857143 16  17.3035714285714 16  L 1.69642857142857 16  C 1.22991071428571 16  0.830543154761905 15.8368055555556  0.498325892857143 15.5104166666667  C 0.166108630952381 15.1840277777778  0 14.7916666666667  0 14.3333333333333  L 0 1.66666666666667  C 0 1.20833333333333  0.166108630952381 0.815972222222221  0.498325892857143 0.489583333333334  C 0.830543154761905 0.163194444444443  1.22991071428571 0  1.69642857142857 0  L 17.3035714285714 0  C 17.7700892857143 0  18.1694568452381 0.163194444444443  18.5016741071429 0.489583333333334  Z " fill-rule="nonzero" fill="#000000" stroke="none" transform="matrix(1 0 0 1 528 653 )" />
  </g>
</svg>