<?xml version="1.0" encoding="utf-8"?>
<svg version="1.1" xmlns:xlink="http://www.w3.org/1999/xlink" width="106px" height="19px" xmlns="http://www.w3.org/2000/svg">
  <defs>
    <mask fill="white" id="clip33">
      <path d="M 0 19  L 0 0  L 56.2000000000007 0  L 73.7999999999993 0  L 77.7999999999993 0  L 106 0  L 106 19  L 77.7999999999993 19  L 0 19  Z " fill-rule="evenodd" />
    </mask>
  </defs>
  <g transform="matrix(1 0 0 1 -674 -544 )">
    <path d="M 0 19  L 0 0  L 56.2000000000007 0  L 73.7999999999993 0  L 77.7999999999993 0  L 106 0  L 106 19  L 77.7999999999993 19  L 0 19  Z " fill-rule="nonzero" fill="#ffffff" stroke="none" transform="matrix(1 0 0 1 674 544 )" />
    <path d="M 0 19  L 0 0  L 56.2000000000007 0  L 73.7999999999993 0  L 77.7999999999993 0  L 106 0  L 106 19  L 77.7999999999993 19  L 0 19  Z " stroke-width="2" stroke="#797979" fill="none" transform="matrix(1 0 0 1 674 544 )" mask="url(#clip33)" />
  </g>
</svg>