<?xml version="1.0" encoding="utf-8"?>
<svg version="1.1" xmlns:xlink="http://www.w3.org/1999/xlink" width="19px" height="16px" xmlns="http://www.w3.org/2000/svg">
  <g transform="matrix(1 0 0 1 -255 -12 )">
    <path d="M 13.43359375 10  C 13.43359375 10.0902777777778  13.3982514880952 10.1701388888889  13.3275669642857 10.2395833333333  L 11.7795758928571 11.7604166666667  C 11.7088913690476 11.8298611111111  11.6276041666667 11.8645833333333  11.5357142857143 11.8645833333333  C 11.4438244047619 11.8645833333333  11.362537202381 11.8298611111111  11.2918526785714 11.7604166666667  L 9.5 10  L 7.70814732142857 11.7604166666667  C 7.63746279761905 11.8298611111111  7.5561755952381 11.8645833333333  7.46428571428571 11.8645833333333  C 7.37239583333333 11.8645833333333  7.29110863095238 11.8298611111111  7.22042410714286 11.7604166666667  L 5.67243303571429 10.2395833333333  C 5.60174851190476 10.1701388888889  5.56640625 10.0902777777778  5.56640625 10  C 5.56640625 9.90972222222222  5.60174851190476 9.82986111111111  5.67243303571429 9.76041666666667  L 7.46428571428571 8  L 5.67243303571429 6.23958333333333  C 5.60174851190476 6.17013888888889  5.56640625 6.09027777777778  5.56640625 6  C 5.56640625 5.90972222222222  5.60174851190476 5.82986111111111  5.67243303571429 5.76041666666667  L 7.22042410714286 4.23958333333333  C 7.29110863095238 4.17013888888889  7.37239583333333 4.13541666666667  7.46428571428571 4.13541666666667  C 7.5561755952381 4.13541666666667  7.63746279761905 4.17013888888889  7.70814732142857 4.23958333333333  L 9.5 6  L 11.2918526785714 4.23958333333333  C 11.362537202381 4.17013888888889  11.4438244047619 4.13541666666667  11.5357142857143 4.13541666666667  C 11.6276041666667 4.13541666666667  11.7088913690476 4.17013888888889  11.7795758928571 4.23958333333333  L 13.3275669642857 5.76041666666667  C 13.3982514880952 5.82986111111111  13.43359375 5.90972222222222  13.43359375 6  C 13.43359375 6.09027777777778  13.3982514880952 6.17013888888889  13.3275669642857 6.23958333333333  L 11.5357142857143 8  L 13.3275669642857 9.76041666666667  C 13.3982514880952 9.82986111111111  13.43359375 9.90972222222222  13.43359375 10  Z M 3 2.66666666666667  L 3 13.3333333333333  L 16 13.3333333333333  L 16 2.66666666666667  L 3 2.66666666666667  Z M 18.5016741071429 0.489583333333334  C 18.8338913690476 0.815972222222221  19 1.20833333333333  19 1.66666666666667  L 19 14.3333333333333  C 19 14.7916666666667  18.8338913690476 15.1840277777778  18.5016741071429 15.5104166666667  C 18.1694568452381 15.8368055555556  17.7700892857143 16  17.3035714285714 16  L 1.69642857142857 16  C 1.22991071428571 16  0.830543154761905 15.8368055555556  0.498325892857143 15.5104166666667  C 0.166108630952381 15.1840277777778  0 14.7916666666667  0 14.3333333333333  L 0 1.66666666666667  C 0 1.20833333333333  0.166108630952381 0.815972222222221  0.498325892857143 0.489583333333334  C 0.830543154761905 0.163194444444443  1.22991071428571 0  1.69642857142857 0  L 17.3035714285714 0  C 17.7700892857143 0  18.1694568452381 0.163194444444443  18.5016741071429 0.489583333333334  Z " fill-rule="nonzero" fill="#000000" stroke="none" transform="matrix(1 0 0 1 255 12 )" />
  </g>
</svg>